# xmcd
#
# Track frame offsets: 
#        150
#        3035
#        13155
#        24462
#        34131
#        45979
#        55015
#        65858
#        71859
#        80908
#        95578
#        103974
#        114168
#
# Disc length: 1676 seconds
#
# Revision: 0
# Processed by: cddbd v1.4PL0 Copyright (c) Steve Scherf et al.
# Submitted via: ExactAudioCopy v0.90b4
#
DISCID=aa068a0d
DTITLE=The Dillards - Wheatstraw Suite
DYEAR=1969
DGENRE=Country
TTITLE0=I'll Fly Away
TTITLE1=Nobody Knows
TTITLE2=Hey Boys
TTITLE3=The Biggest Whatever
TTITLE4=Listen To The Sound
TTITLE5=Little Pete
TTITLE6=Reason To Believe
TTITLE7=Single Saddle
TTITLE8=I've Just Seen Her Face
TTITLE9=Lemon Chimes
TTITLE10=Don't You Cry
TTITLE11=Bending The Strings
TTITLE12=She Sang Hymes Out Of Tune
EXTD=
EXTT0=
EXTT1=
EXTT2=
EXTT3=
EXTT4=
EXTT5=
EXTT6=
EXTT7=
EXTT8=
EXTT9=
EXTT10=
EXTT11=
EXTT12=
PLAYORDER=
